<svg width="413" height="77" viewBox="0 0 413 77" fill="none" xmlns="http://www.w3.org/2000/svg">
<path d="M230.392 72V60.966H226.072V59.4H236.494V60.966H232.174V72H230.392ZM238.454 72V59.4H243.368C245 59.4 246.284 59.79 247.22 60.57C248.156 61.338 248.624 62.412 248.624 63.792C248.624 64.704 248.414 65.49 247.994 66.15C247.574 66.798 246.974 67.296 246.194 67.644C245.414 67.992 244.472 68.166 243.368 68.166H239.444L240.254 67.338V72H238.454ZM246.878 72L243.674 67.428H245.6L248.84 72H246.878ZM240.254 67.518L239.444 66.636H243.314C244.466 66.636 245.336 66.39 245.924 65.898C246.524 65.394 246.824 64.692 246.824 63.792C246.824 62.892 246.524 62.196 245.924 61.704C245.336 61.212 244.466 60.966 243.314 60.966H239.444L240.254 60.066V67.518ZM249.625 72L255.331 59.4H257.113L262.837 72H260.947L255.853 60.408H256.573L251.479 72H249.625ZM252.055 68.85L252.541 67.41H259.633L260.155 68.85H252.055ZM267.684 72L262.14 59.4H264.084L269.178 71.028H268.062L273.192 59.4H274.992L269.466 72H267.684ZM276.599 72V59.4H285.491V60.966H278.399V70.434H285.743V72H276.599ZM278.237 66.366V64.836H284.717V66.366H278.237ZM288.658 72V59.4H290.458V70.434H297.28V72H288.658ZM302.894 72.144C301.934 72.144 301.016 72 300.14 71.712C299.264 71.412 298.574 71.028 298.07 70.56L298.736 69.156C299.216 69.576 299.828 69.924 300.572 70.2C301.316 70.476 302.09 70.614 302.894 70.614C303.626 70.614 304.22 70.53 304.676 70.362C305.132 70.194 305.468 69.966 305.684 69.678C305.9 69.378 306.008 69.042 306.008 68.67C306.008 68.238 305.864 67.89 305.576 67.626C305.3 67.362 304.934 67.152 304.478 66.996C304.034 66.828 303.542 66.684 303.002 66.564C302.462 66.444 301.916 66.306 301.364 66.15C300.824 65.982 300.326 65.772 299.87 65.52C299.426 65.268 299.066 64.932 298.79 64.512C298.514 64.08 298.376 63.528 298.376 62.856C298.376 62.208 298.544 61.614 298.88 61.074C299.228 60.522 299.756 60.084 300.464 59.76C301.184 59.424 302.096 59.256 303.2 59.256C303.932 59.256 304.658 59.352 305.378 59.544C306.098 59.736 306.722 60.012 307.25 60.372L306.656 61.812C306.116 61.452 305.546 61.194 304.946 61.038C304.346 60.87 303.764 60.786 303.2 60.786C302.492 60.786 301.91 60.876 301.454 61.056C300.998 61.236 300.662 61.476 300.446 61.776C300.242 62.076 300.14 62.412 300.14 62.784C300.14 63.228 300.278 63.582 300.554 63.846C300.842 64.11 301.208 64.32 301.652 64.476C302.108 64.632 302.606 64.776 303.146 64.908C303.686 65.028 304.226 65.166 304.766 65.322C305.318 65.478 305.816 65.682 306.26 65.934C306.716 66.186 307.082 66.522 307.358 66.942C307.634 67.362 307.772 67.902 307.772 68.562C307.772 69.198 307.598 69.792 307.25 70.344C306.902 70.884 306.362 71.322 305.63 71.658C304.91 71.982 303.998 72.144 302.894 72.144ZM320.924 72.144C319.964 72.144 319.07 71.982 318.242 71.658C317.426 71.334 316.718 70.884 316.118 70.308C315.518 69.72 315.05 69.036 314.714 68.256C314.378 67.476 314.21 66.624 314.21 65.7C314.21 64.776 314.378 63.924 314.714 63.144C315.05 62.364 315.518 61.686 316.118 61.11C316.718 60.522 317.426 60.066 318.242 59.742C319.058 59.418 319.952 59.256 320.924 59.256C321.884 59.256 322.766 59.418 323.57 59.742C324.386 60.054 325.094 60.504 325.694 61.092C326.306 61.668 326.774 62.346 327.098 63.126C327.434 63.906 327.602 64.764 327.602 65.7C327.602 66.636 327.434 67.494 327.098 68.274C326.774 69.054 326.306 69.738 325.694 70.326C325.094 70.902 324.386 71.352 323.57 71.676C322.766 71.988 321.884 72.144 320.924 72.144ZM320.924 70.542C321.62 70.542 322.262 70.422 322.85 70.182C323.45 69.942 323.966 69.606 324.398 69.174C324.842 68.73 325.184 68.214 325.424 67.626C325.676 67.038 325.802 66.396 325.802 65.7C325.802 65.004 325.676 64.362 325.424 63.774C325.184 63.186 324.842 62.676 324.398 62.244C323.966 61.8 323.45 61.458 322.85 61.218C322.262 60.978 321.62 60.858 320.924 60.858C320.216 60.858 319.562 60.978 318.962 61.218C318.374 61.458 317.858 61.8 317.414 62.244C316.97 62.676 316.622 63.186 316.37 63.774C316.13 64.362 316.01 65.004 316.01 65.7C316.01 66.396 316.13 67.038 316.37 67.626C316.622 68.214 316.97 68.73 317.414 69.174C317.858 69.606 318.374 69.942 318.962 70.182C319.562 70.422 320.216 70.542 320.924 70.542ZM330.353 72V59.4H331.829L340.163 69.75H339.389V59.4H341.189V72H339.713L331.379 61.65H332.153V72H330.353ZM350.648 72.144C349.676 72.144 348.782 71.988 347.966 71.676C347.15 71.352 346.442 70.902 345.842 70.326C345.242 69.738 344.774 69.054 344.438 68.274C344.102 67.494 343.934 66.636 343.934 65.7C343.934 64.764 344.102 63.906 344.438 63.126C344.774 62.346 345.242 61.668 345.842 61.092C346.454 60.504 347.168 60.054 347.984 59.742C348.8 59.418 349.7 59.256 350.684 59.256C351.68 59.256 352.592 59.418 353.42 59.742C354.248 60.066 354.95 60.552 355.526 61.2L354.41 62.316C353.894 61.812 353.33 61.446 352.718 61.218C352.118 60.978 351.464 60.858 350.756 60.858C350.036 60.858 349.364 60.978 348.74 61.218C348.128 61.458 347.594 61.794 347.138 62.226C346.694 62.658 346.346 63.174 346.094 63.774C345.854 64.362 345.734 65.004 345.734 65.7C345.734 66.384 345.854 67.026 346.094 67.626C346.346 68.214 346.694 68.73 347.138 69.174C347.594 69.606 348.128 69.942 348.74 70.182C349.352 70.422 350.018 70.542 350.738 70.542C351.41 70.542 352.052 70.44 352.664 70.236C353.288 70.02 353.864 69.666 354.392 69.174L355.418 70.542C354.794 71.07 354.062 71.472 353.222 71.748C352.394 72.012 351.536 72.144 350.648 72.144ZM355.418 70.542L353.69 70.308V65.628H355.418V70.542ZM364.553 72.144C363.593 72.144 362.699 71.982 361.871 71.658C361.055 71.334 360.347 70.884 359.747 70.308C359.147 69.72 358.679 69.036 358.343 68.256C358.007 67.476 357.839 66.624 357.839 65.7C357.839 64.776 358.007 63.924 358.343 63.144C358.679 62.364 359.147 61.686 359.747 61.11C360.347 60.522 361.055 60.066 361.871 59.742C362.687 59.418 363.581 59.256 364.553 59.256C365.513 59.256 366.395 59.418 367.199 59.742C368.015 60.054 368.723 60.504 369.323 61.092C369.935 61.668 370.403 62.346 370.727 63.126C371.063 63.906 371.231 64.764 371.231 65.7C371.231 66.636 371.063 67.494 370.727 68.274C370.403 69.054 369.935 69.738 369.323 70.326C368.723 70.902 368.015 71.352 367.199 71.676C366.395 71.988 365.513 72.144 364.553 72.144ZM364.553 70.542C365.249 70.542 365.891 70.422 366.479 70.182C367.079 69.942 367.595 69.606 368.027 69.174C368.471 68.73 368.813 68.214 369.053 67.626C369.305 67.038 369.431 66.396 369.431 65.7C369.431 65.004 369.305 64.362 369.053 63.774C368.813 63.186 368.471 62.676 368.027 62.244C367.595 61.8 367.079 61.458 366.479 61.218C365.891 60.978 365.249 60.858 364.553 60.858C363.845 60.858 363.191 60.978 362.591 61.218C362.003 61.458 361.487 61.8 361.043 62.244C360.599 62.676 360.251 63.186 359.999 63.774C359.759 64.362 359.639 65.004 359.639 65.7C359.639 66.396 359.759 67.038 359.999 67.626C360.251 68.214 360.599 68.73 361.043 69.174C361.487 69.606 362.003 69.942 362.591 70.182C363.191 70.422 363.845 70.542 364.553 70.542ZM373.982 72V59.4H375.782V70.434H382.604V72H373.982ZM384.669 72V59.4H393.561V60.966H386.469V70.434H393.813V72H384.669ZM386.307 66.366V64.836H392.787V66.366H386.307Z" fill="white"/>
<rect width="169" height="3" transform="matrix(1 0 0 -1 40 69)" fill="#D9D9D9"/>
<path d="M62.888 5.536L38.864 39.416C36.904 42.216 34.384 43.616 31.416 43.616C28.448 43.616 26.096 42.328 24.08 39.416L0.616 5.536H14.392L31.696 31.016L49.336 5.536H62.888ZM109.046 43H65.5336L72.4776 33.256H88.6056L78.0216 17.968L60.2696 43H46.7176L70.7416 9.12C72.3656 6.88 74.6056 4.92 78.1896 4.92C81.6616 4.92 83.9576 6.768 85.5816 9.12L109.046 43ZM146.667 43H110.883L118.331 33.256H147.003C149.355 33.256 150.419 32.528 150.419 30.848C150.419 29.112 149.299 28.384 146.891 28.384H126.619C117.491 28.384 112.227 24.24 112.227 17.128C112.227 9.4 117.435 5.536 128.019 5.536H160.779L153.331 15.28H127.123C124.715 15.28 123.595 16.064 123.595 17.688C123.595 19.368 124.715 20.152 127.123 20.152H147.563C156.859 20.152 161.787 23.904 161.787 31.016C161.787 39.248 157.083 43 146.667 43ZM204.116 26.648V5.536H215.652V26.648C215.652 38.352 208.092 43.616 191.236 43.616C174.212 43.616 166.54 38.408 166.54 26.648V5.536H178.132V26.648C178.132 31.968 181.548 33.872 191.236 33.872C200.812 33.872 204.116 31.968 204.116 26.648Z" fill="url(#paint0_linear_604_168)"/>
<path d="M283.924 43H265.108C252.172 43 242.54 34.824 242.54 23.904C242.54 13.152 251.892 5.536 265.108 5.536H291.316L283.924 15.28H265.108C257.884 15.28 254.076 18.248 254.076 23.904C254.076 29.784 258.164 33.256 265.108 33.256H291.316L283.924 43ZM350.874 43H307.362L314.306 33.256H330.434L319.85 17.968L302.098 43H288.546L312.57 9.12C314.194 6.88 316.434 4.92 320.018 4.92C323.49 4.92 325.786 6.768 327.41 9.12L350.874 43ZM405.687 19.2C405.687 25.024 402.383 29.28 396.671 31.464L407.983 43H392.695L383.287 33.032H366.319V43H354.783V23.68H387.991C392.247 23.68 394.095 22.448 394.095 19.648C394.095 16.624 392.135 15.28 387.935 15.28H354.783L362.511 5.536H386.815C398.575 5.536 405.687 10.632 405.687 19.2Z" fill="url(#paint1_linear_604_168)"/>
<defs>
<linearGradient id="paint0_linear_604_168" x1="0" y1="27.5" x2="413" y2="27.5" gradientUnits="userSpaceOnUse">
<stop offset="1" stop-color="white"/>
</linearGradient>
<linearGradient id="paint1_linear_604_168" x1="0" y1="27.5" x2="413" y2="27.5" gradientUnits="userSpaceOnUse">
<stop offset="1" stop-color="#ED1C24"/>
</linearGradient>
</defs>
</svg>
